<svg width="110" height="110" viewBox="0 0 110 110" fill="none" xmlns="http://www.w3.org/2000/svg">
<mask id="path-1-inside-1_2287_4473" fill="white">
<path fill-rule="evenodd" clip-rule="evenodd" d="M84.6232 70.5065L107.081 92.9643C110.973 96.8567 110.973 103.189 107.082 107.081C105.202 108.961 102.695 109.996 100.023 109.996C97.3502 109.996 94.8434 108.961 92.9643 107.081L70.5065 84.6232C63.1573 89.3078 54.6836 91.7751 45.8867 91.7751C33.6297 91.7751 22.1071 87.0024 13.4403 78.3357C4.77272 69.6689 0 58.1454 0 45.8884C0 33.6306 4.77272 22.1071 13.4403 13.4403C22.1071 4.77356 33.6306 0 45.8884 0C58.1454 0 69.6689 4.77356 78.3357 13.4403C93.6173 28.7227 96.1392 52.4479 84.6232 70.5065ZM100.023 105.709C101.551 105.709 102.981 105.12 104.051 104.051C106.271 101.829 106.271 98.2154 104.051 95.9948L80.3523 72.2965C79.6189 71.5631 79.5156 70.4116 80.1065 69.5598C91.5653 53.0387 89.5453 30.7117 75.3052 16.4708C67.4475 8.61304 57.0007 4.28596 45.8884 4.28596C34.7753 4.28596 24.3285 8.61304 16.4708 16.4708C0.250092 32.6915 0.250092 59.0845 16.4708 75.3052C24.3277 83.1621 34.7745 87.4892 45.8867 87.4892C54.41 87.4892 62.5967 84.9362 69.5598 80.1064C69.9299 79.8496 70.3562 79.7246 70.7809 79.7246C71.3331 79.7246 71.882 79.9369 72.2965 80.3523L95.9948 104.051C97.0648 105.12 98.4949 105.709 100.023 105.709ZM50.9156 14.7689C51.1825 13.6158 52.3331 12.8983 53.4862 13.1643C59.6008 14.5776 65.1868 17.6802 69.6422 22.1349C82.7393 35.2328 82.7393 56.5442 69.6422 69.6422C63.0929 76.1907 54.4907 79.4645 45.8886 79.4654C37.2856 79.4654 28.6835 76.1907 22.135 69.6422C9.03705 56.5442 9.03705 35.2328 22.135 22.1349C25.8939 18.3751 30.3452 15.6316 35.3655 13.9809C36.4892 13.6108 37.701 14.2226 38.0711 15.3471C38.4404 16.4717 37.8286 17.6827 36.7049 18.052C32.3283 19.4921 28.446 21.8848 25.1654 25.1653C13.7384 36.5915 13.7384 55.1847 25.1654 66.6108C36.5916 78.0378 55.1848 78.0378 66.6109 66.6108C78.0371 55.1847 78.0371 36.5915 66.6109 25.1653C62.7244 21.2788 57.8519 18.5723 52.5211 17.3403C51.3679 17.0734 50.6487 15.922 50.9156 14.7689ZM58.8252 32.9508C57.9884 32.1141 56.6322 32.1141 55.7947 32.9508L45.8884 42.8571L35.9812 32.9508C35.1445 32.1141 33.7875 32.1141 32.9508 32.9508C32.1141 33.7875 32.1141 35.1445 32.9508 35.9812L42.8571 45.8884L32.9508 55.7947C32.1141 56.6314 32.1141 57.9884 32.9508 58.8252C33.3687 59.2439 33.9176 59.4529 34.4656 59.4529C35.0145 59.4529 35.5625 59.2439 35.9812 58.8252L45.8876 48.9189L55.7939 58.8252C56.2126 59.2439 56.7615 59.4529 57.3095 59.4529C57.8584 59.4529 58.4064 59.2439 58.8252 58.8252C59.6619 57.9884 59.6619 56.6314 58.8252 55.7947L48.918 45.8884L58.8252 35.9812C59.6619 35.1445 59.6619 33.7875 58.8252 32.9508ZM46.6102 14.4702C46.6102 15.651 45.6476 16.6136 44.4676 16.6136C43.2868 16.6136 42.3242 15.651 42.3242 14.4702C42.3242 13.2902 43.2868 12.3276 44.4676 12.3276C45.6476 12.3276 46.6102 13.2902 46.6102 14.4702Z"/>
</mask>
<path fill-rule="evenodd" clip-rule="evenodd" d="M84.6232 70.5065L107.081 92.9643C110.973 96.8567 110.973 103.189 107.082 107.081C105.202 108.961 102.695 109.996 100.023 109.996C97.3502 109.996 94.8434 108.961 92.9643 107.081L70.5065 84.6232C63.1573 89.3078 54.6836 91.7751 45.8867 91.7751C33.6297 91.7751 22.1071 87.0024 13.4403 78.3357C4.77272 69.6689 0 58.1454 0 45.8884C0 33.6306 4.77272 22.1071 13.4403 13.4403C22.1071 4.77356 33.6306 0 45.8884 0C58.1454 0 69.6689 4.77356 78.3357 13.4403C93.6173 28.7227 96.1392 52.4479 84.6232 70.5065ZM100.023 105.709C101.551 105.709 102.981 105.12 104.051 104.051C106.271 101.829 106.271 98.2154 104.051 95.9948L80.3523 72.2965C79.6189 71.5631 79.5156 70.4116 80.1065 69.5598C91.5653 53.0387 89.5453 30.7117 75.3052 16.4708C67.4475 8.61304 57.0007 4.28596 45.8884 4.28596C34.7753 4.28596 24.3285 8.61304 16.4708 16.4708C0.250092 32.6915 0.250092 59.0845 16.4708 75.3052C24.3277 83.1621 34.7745 87.4892 45.8867 87.4892C54.41 87.4892 62.5967 84.9362 69.5598 80.1064C69.9299 79.8496 70.3562 79.7246 70.7809 79.7246C71.3331 79.7246 71.882 79.9369 72.2965 80.3523L95.9948 104.051C97.0648 105.12 98.4949 105.709 100.023 105.709ZM50.9156 14.7689C51.1825 13.6158 52.3331 12.8983 53.4862 13.1643C59.6008 14.5776 65.1868 17.6802 69.6422 22.1349C82.7393 35.2328 82.7393 56.5442 69.6422 69.6422C63.0929 76.1907 54.4907 79.4645 45.8886 79.4654C37.2856 79.4654 28.6835 76.1907 22.135 69.6422C9.03705 56.5442 9.03705 35.2328 22.135 22.1349C25.8939 18.3751 30.3452 15.6316 35.3655 13.9809C36.4892 13.6108 37.701 14.2226 38.0711 15.3471C38.4404 16.4717 37.8286 17.6827 36.7049 18.052C32.3283 19.4921 28.446 21.8848 25.1654 25.1653C13.7384 36.5915 13.7384 55.1847 25.1654 66.6108C36.5916 78.0378 55.1848 78.0378 66.6109 66.6108C78.0371 55.1847 78.0371 36.5915 66.6109 25.1653C62.7244 21.2788 57.8519 18.5723 52.5211 17.3403C51.3679 17.0734 50.6487 15.922 50.9156 14.7689ZM58.8252 32.9508C57.9884 32.1141 56.6322 32.1141 55.7947 32.9508L45.8884 42.8571L35.9812 32.9508C35.1445 32.1141 33.7875 32.1141 32.9508 32.9508C32.1141 33.7875 32.1141 35.1445 32.9508 35.9812L42.8571 45.8884L32.9508 55.7947C32.1141 56.6314 32.1141 57.9884 32.9508 58.8252C33.3687 59.2439 33.9176 59.4529 34.4656 59.4529C35.0145 59.4529 35.5625 59.2439 35.9812 58.8252L45.8876 48.9189L55.7939 58.8252C56.2126 59.2439 56.7615 59.4529 57.3095 59.4529C57.8584 59.4529 58.4064 59.2439 58.8252 58.8252C59.6619 57.9884 59.6619 56.6314 58.8252 55.7947L48.918 45.8884L58.8252 35.9812C59.6619 35.1445 59.6619 33.7875 58.8252 32.9508ZM46.6102 14.4702C46.6102 15.651 45.6476 16.6136 44.4676 16.6136C43.2868 16.6136 42.3242 15.651 42.3242 14.4702C42.3242 13.2902 43.2868 12.3276 44.4676 12.3276C45.6476 12.3276 46.6102 13.2902 46.6102 14.4702Z" fill="#081129"/>
<path d="M107.081 92.9643L107.435 92.6108L107.435 92.6108L107.081 92.9643ZM84.6232 70.5065L84.2016 70.2376L83.9858 70.5761L84.2696 70.86L84.6232 70.5065ZM107.082 107.081L107.435 107.435L107.436 107.435L107.082 107.081ZM92.9643 107.081L93.318 106.728L93.3179 106.728L92.9643 107.081ZM70.5065 84.6232L70.86 84.2696L70.5762 83.9858L70.2377 84.2016L70.5065 84.6232ZM13.4403 78.3357L13.7939 77.9821L13.7938 77.9821L13.4403 78.3357ZM13.4403 13.4403L13.7938 13.7939L13.7939 13.7939L13.4403 13.4403ZM78.3357 13.4403L78.6892 13.0868L78.6892 13.0868L78.3357 13.4403ZM104.051 104.051L104.404 104.404L104.404 104.404L104.051 104.051ZM104.051 95.9948L104.404 95.6412L104.051 95.9948ZM80.3523 72.2965L79.9988 72.6501L80.3523 72.2965ZM80.1065 69.5598L80.5173 69.8448V69.8448L80.1065 69.5598ZM75.3052 16.4708L75.6588 16.1172L75.6588 16.1172L75.3052 16.4708ZM16.4708 16.4708L16.1172 16.1172L16.4708 16.4708ZM16.4708 75.3052L16.1172 75.6587L16.4708 75.3052ZM69.5598 80.1064L69.8448 80.5173L69.8449 80.5172L69.5598 80.1064ZM72.2965 80.3523L71.9426 80.7055L71.943 80.7059L72.2965 80.3523ZM95.9948 104.051L95.6413 104.404L95.6414 104.404L95.9948 104.051ZM53.4862 13.1643L53.5988 12.6771L53.5986 12.6771L53.4862 13.1643ZM50.9156 14.7689L51.4027 14.8816L50.9156 14.7689ZM69.6422 22.1349L69.9958 21.7813L69.9958 21.7813L69.6422 22.1349ZM69.6422 69.6422L69.9958 69.9957L69.9958 69.9957L69.6422 69.6422ZM45.8886 79.4654V79.9654H45.8886L45.8886 79.4654ZM22.135 69.6422L21.7814 69.9957L22.135 69.6422ZM22.135 22.1349L22.4885 22.4884L22.4885 22.4884L22.135 22.1349ZM35.3655 13.9809L35.5216 14.4558L35.5219 14.4558L35.3655 13.9809ZM38.0711 15.3471L38.5462 15.1912L38.5461 15.1908L38.0711 15.3471ZM36.7049 18.052L36.5488 17.577L36.5486 17.577L36.7049 18.052ZM25.1654 25.1653L25.519 25.5189L25.519 25.5189L25.1654 25.1653ZM25.1654 66.6108L25.519 66.2573L25.519 66.2573L25.1654 66.6108ZM66.6109 66.6108L66.2574 66.2573L66.2574 66.2573L66.6109 66.6108ZM66.6109 25.1653L66.2574 25.5189L66.6109 25.1653ZM52.5211 17.3403L52.4083 17.8274L52.4085 17.8275L52.5211 17.3403ZM55.7947 32.9508L55.4413 32.597L55.4411 32.5972L55.7947 32.9508ZM45.8884 42.8571L45.5349 43.2107L45.8884 43.5642L46.2419 43.2106L45.8884 42.8571ZM35.9812 32.9508L35.6277 33.3043L35.6277 33.3043L35.9812 32.9508ZM32.9508 35.9812L33.3043 35.6277L33.3043 35.6277L32.9508 35.9812ZM42.8571 45.8884L43.2106 46.2419L43.5642 45.8884L43.2107 45.5349L42.8571 45.8884ZM32.9508 58.8252L33.3047 58.472L33.3043 58.4716L32.9508 58.8252ZM45.8876 48.9189L46.2411 48.5653L45.8876 48.2118L45.534 48.5653L45.8876 48.9189ZM58.8252 55.7947L59.1787 55.4411L59.1787 55.4411L58.8252 55.7947ZM48.918 45.8884L48.5645 45.5348L48.2109 45.8884L48.5645 46.242L48.918 45.8884ZM107.435 92.6108L84.9768 70.1529L84.2696 70.86L106.728 93.3179L107.435 92.6108ZM107.436 107.435C111.521 103.347 111.521 96.6984 107.435 92.6108L106.727 93.3178C110.424 97.015 110.424 103.03 106.728 106.728L107.436 107.435ZM100.023 110.496C102.827 110.496 105.461 109.409 107.435 107.435L106.728 106.728C104.943 108.513 102.563 109.496 100.023 109.496V110.496ZM92.6107 107.435C94.5842 109.409 97.2184 110.496 100.023 110.496V109.496C97.4819 109.496 95.1026 108.513 93.318 106.728L92.6107 107.435ZM70.1529 84.9768L92.6108 107.435L93.3179 106.728L70.86 84.2696L70.1529 84.9768ZM45.8867 92.2751C54.7782 92.2751 63.3453 89.7809 70.7752 85.0448L70.2377 84.2016C62.9694 88.8347 54.589 91.2751 45.8867 91.2751V92.2751ZM13.0868 78.6892C21.8473 87.4497 33.4971 92.2751 45.8867 92.2751V91.2751C33.7623 91.2751 22.3669 86.5551 13.7939 77.9821L13.0868 78.6892ZM-0.5 45.8884C-0.5 58.278 4.32539 69.9287 13.0868 78.6892L13.7938 77.9821C5.22005 69.4091 0.5 58.0128 0.5 45.8884H-0.5ZM13.0868 13.0867C4.32538 21.8473 -0.5 33.498 -0.5 45.8884H0.5C0.5 33.7632 5.22005 22.3669 13.7938 13.7939L13.0868 13.0867ZM45.8884 -0.5C33.498 -0.5 21.8473 4.32624 13.0868 13.0868L13.7939 13.7939C22.3669 5.22087 33.7632 0.5 45.8884 0.5V-0.5ZM78.6892 13.0868C69.9287 4.32624 58.278 -0.5 45.8884 -0.5V0.5C58.0128 0.5 69.4091 5.22087 77.9821 13.7939L78.6892 13.0868ZM85.0448 70.7753C96.6867 52.5191 94.1368 28.5352 78.6892 13.0868L77.9821 13.7939C93.0977 28.9103 95.5916 52.3766 84.2016 70.2376L85.0448 70.7753ZM103.697 103.697C102.722 104.671 101.419 105.209 100.023 105.209V106.209C101.682 106.209 103.239 105.568 104.404 104.404L103.697 103.697ZM103.697 96.3484C105.722 98.3737 105.722 101.671 103.697 103.697L104.404 104.404C106.82 101.987 106.82 98.0572 104.404 95.6412L103.697 96.3484ZM79.9988 72.6501L103.697 96.3484L104.404 95.6412L80.7059 71.943L79.9988 72.6501ZM79.6956 69.2748C78.9669 70.3254 79.0944 71.7457 79.9988 72.6501L80.7059 71.943C80.1434 71.3804 80.0643 70.4979 80.5173 69.8448L79.6956 69.2748ZM74.9516 16.8243C89.0212 30.8947 91.0163 52.9529 79.6956 69.2748L80.5173 69.8448C92.1144 53.1244 90.0694 30.5287 75.6588 16.1172L74.9516 16.8243ZM45.8884 4.78596C56.8681 4.78596 67.1877 9.06037 74.9516 16.8243L75.6588 16.1172C67.7072 8.16572 57.1333 3.78596 45.8884 3.78596V4.78596ZM16.8243 16.8243C24.5883 9.06037 34.9079 4.78596 45.8884 4.78596V3.78596C34.6427 3.78596 24.0687 8.16572 16.1172 16.1172L16.8243 16.8243ZM16.8243 74.9516C0.798907 58.9262 0.798907 32.8498 16.8243 16.8243L16.1172 16.1172C-0.298724 32.5332 -0.298724 59.2428 16.1172 75.6587L16.8243 74.9516ZM45.8867 86.9892C34.9071 86.9892 24.5875 82.7148 16.8243 74.9516L16.1172 75.6587C24.0679 83.6094 34.6419 87.9892 45.8867 87.9892V86.9892ZM69.2748 79.6956C62.3959 84.467 54.3088 86.9892 45.8867 86.9892V87.9892C54.5112 87.9892 62.7975 85.4055 69.8448 80.5173L69.2748 79.6956ZM70.7809 79.2246C70.2577 79.2246 69.7313 79.3789 69.2748 79.6956L69.8449 80.5172C70.1285 80.3204 70.4548 80.2246 70.7809 80.2246V79.2246ZM72.6505 79.9991C72.1387 79.4863 71.461 79.2246 70.7809 79.2246V80.2246C71.2052 80.2246 71.6253 80.3875 71.9426 80.7055L72.6505 79.9991ZM96.3484 103.697L72.6501 79.9988L71.943 80.7059L95.6413 104.404L96.3484 103.697ZM100.023 105.209C98.626 105.209 97.3235 104.671 96.3482 103.697L95.6414 104.404C96.8061 105.568 98.3637 106.209 100.023 106.209V105.209ZM53.5986 12.6771C52.1769 12.3491 50.7577 13.2338 50.4285 14.6562L51.4027 14.8816C51.6073 13.9978 52.4892 13.4474 53.3738 13.6515L53.5986 12.6771ZM69.9958 21.7813C65.4744 17.2607 59.8051 14.1116 53.5988 12.6771L53.3736 13.6515C59.3965 15.0435 64.8991 18.0997 69.2887 22.4884L69.9958 21.7813ZM69.9958 69.9957C83.2881 56.7025 83.2881 35.0745 69.9958 21.7813L69.2887 22.4884C82.1905 35.391 82.1905 56.386 69.2887 69.2886L69.9958 69.9957ZM45.8886 79.9654C54.6175 79.9645 63.3486 76.6421 69.9958 69.9957L69.2887 69.2886C62.8372 75.7393 54.364 78.9645 45.8885 78.9654L45.8886 79.9654ZM21.7814 69.9957C28.4278 76.6421 37.1589 79.9654 45.8886 79.9654V78.9654C37.4124 78.9654 28.9392 75.7393 22.4885 69.2886L21.7814 69.9957ZM21.7814 21.7813C8.48823 35.0745 8.48823 56.7025 21.7814 69.9957L22.4885 69.2886C9.58586 56.386 9.58586 35.3911 22.4885 22.4884L21.7814 21.7813ZM35.2093 13.5059C30.1141 15.1813 25.5953 17.9665 21.7814 21.7813L22.4885 22.4884C26.1924 18.7836 30.5762 16.082 35.5216 14.4558L35.2093 13.5059ZM38.5461 15.1908C38.0897 13.8041 36.5953 13.0494 35.209 13.506L35.5219 14.4558C36.3831 14.1721 37.3124 14.641 37.5962 15.5034L38.5461 15.1908ZM36.861 18.527C38.2472 18.0715 39.0015 16.5778 38.5462 15.1912L37.5961 15.5031C37.8793 16.3656 37.41 17.294 36.5488 17.577L36.861 18.527ZM25.519 25.5189C28.7446 22.2933 32.5594 19.9424 36.8612 18.5269L36.5486 17.577C32.0972 19.0418 28.1474 21.4762 24.8119 24.8118L25.519 25.5189ZM25.519 66.2573C14.2872 55.0264 14.2872 36.7498 25.519 25.5189L24.8119 24.8118C13.1896 36.4332 13.1896 55.343 24.8119 66.9644L25.519 66.2573ZM66.2574 66.2573C55.0265 77.489 36.7499 77.489 25.519 66.2573L24.8119 66.9644C36.4333 78.5867 55.3431 78.5867 66.9645 66.9644L66.2574 66.2573ZM66.2574 25.5189C77.4883 36.7498 77.4883 55.0264 66.2574 66.2573L66.9645 66.9644C78.5859 55.343 78.5859 36.4332 66.9645 24.8118L66.2574 25.5189ZM52.4085 17.8275C57.6475 19.0383 62.4368 21.6983 66.2574 25.5189L66.9645 24.8118C63.0121 20.8594 58.0562 18.1063 52.6336 16.8532L52.4085 17.8275ZM50.4285 14.6562C50.0993 16.0785 50.9864 17.4983 52.4083 17.8274L52.6338 16.8532C51.7495 16.6485 51.1982 15.7655 51.4027 14.8816L50.4285 14.6562ZM56.1481 33.3045C56.7905 32.6627 57.8303 32.663 58.4716 33.3043L59.1787 32.5972C58.1466 31.5651 56.474 31.5654 55.4413 32.597L56.1481 33.3045ZM46.2419 43.2106L56.1482 33.3043L55.4411 32.5972L45.5348 42.5035L46.2419 43.2106ZM35.6277 33.3043L45.5349 43.2107L46.2419 42.5035L36.3348 32.5972L35.6277 33.3043ZM33.3043 33.3043C33.9458 32.6629 34.9862 32.6629 35.6277 33.3043L36.3348 32.5972C35.3028 31.5652 33.6292 31.5652 32.5972 32.5972L33.3043 33.3043ZM33.3043 35.6277C32.6629 34.9862 32.6629 33.9458 33.3043 33.3043L32.5972 32.5972C31.5652 33.6292 31.5652 35.3028 32.5972 36.3348L33.3043 35.6277ZM43.2107 45.5349L33.3043 35.6277L32.5972 36.3348L42.5035 46.2419L43.2107 45.5349ZM33.3043 56.1482L43.2106 46.2419L42.5035 45.5348L32.5972 55.4411L33.3043 56.1482ZM33.3043 58.4716C32.6629 57.8302 32.6629 56.7897 33.3043 56.1482L32.5972 55.4411C31.5652 56.4731 31.5652 58.1467 32.5972 59.1787L33.3043 58.4716ZM34.4656 58.9529C34.0445 58.9529 33.6248 58.7927 33.3047 58.472L32.5969 59.1784C33.1126 59.6952 33.7906 59.9529 34.4656 59.9529V58.9529ZM35.6277 58.4716C35.3065 58.7928 34.8873 58.9529 34.4656 58.9529V59.9529C35.1416 59.9529 35.8185 59.6951 36.3348 59.1787L35.6277 58.4716ZM45.534 48.5653L35.6277 58.4716L36.3348 59.1787L46.2411 49.2724L45.534 48.5653ZM56.1474 58.4716L46.2411 48.5653L45.534 49.2724L55.4403 59.1787L56.1474 58.4716ZM57.3095 58.9529C56.8885 58.9529 56.4686 58.7928 56.1474 58.4716L55.4403 59.1787C55.9567 59.6951 56.6344 59.9529 57.3095 59.9529V58.9529ZM58.4716 58.4716C58.1504 58.7928 57.7312 58.9529 57.3095 58.9529V59.9529C57.9855 59.9529 58.6624 59.6951 59.1787 59.1787L58.4716 58.4716ZM58.4716 56.1482C59.1131 56.7897 59.1131 57.8302 58.4716 58.4716L59.1787 59.1787C60.2107 58.1467 60.2107 56.4731 59.1787 55.4411L58.4716 56.1482ZM48.5645 46.242L58.4716 56.1483L59.1787 55.4411L49.2716 45.5348L48.5645 46.242ZM58.4716 35.6277L48.5645 45.5348L49.2716 46.2419L59.1787 36.3348L58.4716 35.6277ZM58.4716 33.3043C59.1131 33.9458 59.1131 34.9862 58.4716 35.6277L59.1787 36.3348C60.2107 35.3028 60.2107 33.6292 59.1787 32.5972L58.4716 33.3043ZM44.4676 17.1136C45.9238 17.1136 47.1102 15.927 47.1102 14.4702H46.1102C46.1102 15.375 45.3713 16.1136 44.4676 16.1136V17.1136ZM41.8242 14.4702C41.8242 15.9271 43.0107 17.1136 44.4676 17.1136V16.1136C43.563 16.1136 42.8242 15.3749 42.8242 14.4702H41.8242ZM44.4676 11.8276C43.0108 11.8276 41.8242 13.014 41.8242 14.4702H42.8242C42.8242 13.5665 43.5628 12.8276 44.4676 12.8276V11.8276ZM47.1102 14.4702C47.1102 13.0141 45.9237 11.8276 44.4676 11.8276V12.8276C45.3714 12.8276 46.1102 13.5664 46.1102 14.4702H47.1102Z" fill="white" mask="url(#path-1-inside-1_2287_4473)"/>
</svg>
